<svg id="visual" viewBox="0 0 900 600" width="1080" height="720" xmlns="http://www.w3.org/2000/svg" xmlns:xlink="http://www.w3.org/1999/xlink" version="1.1"><g stroke-width="3" stroke-linejoin="bevel"><path d="M402.7 333L513.3 236L348.7 269Z" fill="#1a1919" stroke="#1A1919"></path><path d="M513.3 236L406.7 104L348.7 269Z" fill="#222020" stroke="#1A1919"></path><path d="M402.7 333L522.3 382L513.3 236Z" fill="#272525" stroke="#1A1919"></path><path d="M522.3 382L625.9 263L513.3 236Z" fill="#1a1919" stroke="#1A1919"></path><path d="M513.3 236L533.3 85L406.7 104Z" fill="#272525" stroke="#1A1919"></path><path d="M646.9 116L533.3 85L513.3 236Z" fill="#343232" stroke="#1A1919"></path><path d="M287.1 91L225.1 241L348.7 269Z" fill="#312f2f" stroke="#1A1919"></path><path d="M348.7 269L242.1 390L402.7 333Z" fill="#272525" stroke="#1A1919"></path><path d="M406.7 104L287.1 91L348.7 269Z" fill="#2a2828" stroke="#1A1919"></path><path d="M422.7 0L287.1 91L406.7 104Z" fill="#343232" stroke="#1A1919"></path><path d="M384.7 496L549.3 454L522.3 382Z" fill="#343232" stroke="#1A1919"></path><path d="M522.3 382L657.9 395L625.9 263Z" fill="#312f2f" stroke="#1A1919"></path><path d="M384.7 496L522.3 382L402.7 333Z" fill="#272525" stroke="#1A1919"></path><path d="M225.1 241L242.1 390L348.7 269Z" fill="#2f2d2d" stroke="#1A1919"></path><path d="M242.1 390L384.7 496L402.7 333Z" fill="#343232" stroke="#1A1919"></path><path d="M533.3 85L422.7 0L406.7 104Z" fill="#222020" stroke="#1A1919"></path><path d="M625.9 263L646.9 116L513.3 236Z" fill="#312f2f" stroke="#1A1919"></path><path d="M533.3 85L538.3 0L422.7 0Z" fill="#272525" stroke="#1A1919"></path><path d="M549.3 454L657.9 395L522.3 382Z" fill="#272525" stroke="#1A1919"></path><path d="M625.9 263L737.4 202L646.9 116Z" fill="#1a1919" stroke="#1A1919"></path><path d="M639.9 0L538.3 0L533.3 85Z" fill="#312f2f" stroke="#1A1919"></path><path d="M540.3 600L616.9 483L549.3 454Z" fill="#242323" stroke="#1A1919"></path><path d="M549.3 454L616.9 483L657.9 395Z" fill="#242323" stroke="#1A1919"></path><path d="M242.1 390L280.1 511L384.7 496Z" fill="#1d1b1b" stroke="#1A1919"></path><path d="M384.7 496L540.3 600L549.3 454Z" fill="#1a1919" stroke="#1A1919"></path><path d="M422.7 0L256.1 0L287.1 91Z" fill="#2f2d2d" stroke="#1A1919"></path><path d="M95.6 80L89.6 224L225.1 241Z" fill="#1d1b1b" stroke="#1A1919"></path><path d="M769.4 385L737.4 202L625.9 263Z" fill="#1f1e1e" stroke="#1A1919"></path><path d="M646.9 116L639.9 0L533.3 85Z" fill="#1d1b1b" stroke="#1A1919"></path><path d="M775.4 0L639.9 0L646.9 116Z" fill="#272525" stroke="#1A1919"></path><path d="M225.1 241L119.6 374L242.1 390Z" fill="#1f1e1e" stroke="#1A1919"></path><path d="M242.1 390L136.6 453L280.1 511Z" fill="#1a1919" stroke="#1A1919"></path><path d="M89.6 224L119.6 374L225.1 241Z" fill="#222020" stroke="#1A1919"></path><path d="M95.6 80L225.1 241L287.1 91Z" fill="#1a1919" stroke="#1A1919"></path><path d="M280.1 511L396.7 600L384.7 496Z" fill="#2f2d2d" stroke="#1A1919"></path><path d="M119.6 374L136.6 453L242.1 390Z" fill="#2a2828" stroke="#1A1919"></path><path d="M280.1 511L217.1 600L396.7 600Z" fill="#1d1b1b" stroke="#1A1919"></path><path d="M657.9 395L769.4 385L625.9 263Z" fill="#242323" stroke="#1A1919"></path><path d="M748.4 470L769.4 385L657.9 395Z" fill="#242323" stroke="#1A1919"></path><path d="M396.7 600L540.3 600L384.7 496Z" fill="#1f1e1e" stroke="#1A1919"></path><path d="M616.9 483L748.4 470L657.9 395Z" fill="#1f1e1e" stroke="#1A1919"></path><path d="M144.6 0L95.6 80L287.1 91Z" fill="#222020" stroke="#1A1919"></path><path d="M900 233L797.4 156L737.4 202Z" fill="#2c2a2a" stroke="#1A1919"></path><path d="M737.4 202L797.4 156L646.9 116Z" fill="#242323" stroke="#1A1919"></path><path d="M256.1 0L144.6 0L287.1 91Z" fill="#242323" stroke="#1A1919"></path><path d="M622.9 600L748.4 470L616.9 483Z" fill="#1d1b1b" stroke="#1A1919"></path><path d="M540.3 600L622.9 600L616.9 483Z" fill="#1a1919" stroke="#1A1919"></path><path d="M136.6 453L217.1 600L280.1 511Z" fill="#343232" stroke="#1A1919"></path><path d="M797.4 156L775.4 0L646.9 116Z" fill="#272525" stroke="#1A1919"></path><path d="M119.6 374L0 463L136.6 453Z" fill="#2a2828" stroke="#1A1919"></path><path d="M136.6 453L109.6 600L217.1 600Z" fill="#343232" stroke="#1A1919"></path><path d="M89.6 224L0 336L119.6 374Z" fill="#242323" stroke="#1A1919"></path><path d="M0 152L0 258L89.6 224Z" fill="#2f2d2d" stroke="#1A1919"></path><path d="M0 258L0 336L89.6 224Z" fill="#2c2a2a" stroke="#1A1919"></path><path d="M0 0L0 152L95.6 80Z" fill="#343232" stroke="#1A1919"></path><path d="M95.6 80L0 152L89.6 224Z" fill="#1f1e1e" stroke="#1A1919"></path><path d="M769.4 385L900 233L737.4 202Z" fill="#1d1b1b" stroke="#1A1919"></path><path d="M797.4 156L900 95L775.4 0Z" fill="#312f2f" stroke="#1A1919"></path><path d="M900 349L900 233L769.4 385Z" fill="#312f2f" stroke="#1A1919"></path><path d="M0 463L109.6 600L136.6 453Z" fill="#1a1919" stroke="#1A1919"></path><path d="M900 482L900 349L769.4 385Z" fill="#343232" stroke="#1A1919"></path><path d="M900 482L769.4 385L748.4 470Z" fill="#1f1e1e" stroke="#1A1919"></path><path d="M0 336L0 463L119.6 374Z" fill="#1f1e1e" stroke="#1A1919"></path><path d="M622.9 600L783.4 600L748.4 470Z" fill="#242323" stroke="#1A1919"></path><path d="M900 233L900 95L797.4 156Z" fill="#2c2a2a" stroke="#1A1919"></path><path d="M144.6 0L0 0L95.6 80Z" fill="#1f1e1e" stroke="#1A1919"></path><path d="M783.4 600L900 482L748.4 470Z" fill="#343232" stroke="#1A1919"></path><path d="M900 95L900 0L775.4 0Z" fill="#1f1e1e" stroke="#1A1919"></path><path d="M0 463L0 600L109.6 600Z" fill="#242323" stroke="#1A1919"></path><path d="M783.4 600L900 600L900 482Z" fill="#312f2f" stroke="#1A1919"></path></g></svg>