<svg id="visual" viewBox="0 0 960 540" width="900" height="450" xmlns="http://www.w3.org/2000/svg" xmlns:xlink="http://www.w3.org/1999/xlink" version="1.1"><rect x="0" y="0" width="960" height="540" fill="#1a1919"></rect><path d="M312 0L310.5 15C309 30 306 60 325.3 90C344.7 120 386.3 150 368 180C349.7 210 271.3 240 266 270C260.7 300 328.3 330 343 360C357.7 390 319.3 420 334 450C348.7 480 416.3 510 450.2 525L484 540L0 540L0 525C0 510 0 480 0 450C0 420 0 390 0 360C0 330 0 300 0 270C0 240 0 210 0 180C0 150 0 120 0 90C0 60 0 30 0 15L0 0Z" fill="#161414" stroke-linecap="round" stroke-linejoin="miter"></path></svg>